<?xml version="1.0" encoding="UTF-8"?>
<svg width="32px" height="32px" viewBox="0 0 32 32" version="1.1" xmlns="http://www.w3.org/2000/svg" xmlns:xlink="http://www.w3.org/1999/xlink">
    <!-- Generator: Sketch 64 (93537) - https://sketch.com -->
    <title>logo</title>
    <desc>Created with Sketch.</desc>
    <g id="检察院承办人角色" stroke="none" stroke-width="1" fill="none" fill-rule="evenodd">
        <g id="1.1检察院承办人角色-首页" transform="translate(-22.000000, -12.000000)" fill-rule="nonzero">
            <g id="logo" transform="translate(22.000000, 12.000000)">
                <rect id="矩形" fill="#4772D4" opacity="0" x="0" y="0" width="32" height="32"></rect>
                <path d="M17.64,19.4352941 L19.5576471,19.4352941 L19.5576471,19.4352941 L19.5576471,20.2564706 C19.5576471,20.776268 19.9790261,21.1976471 20.4988235,21.1976471 C21.0186209,21.1976471 21.44,20.776268 21.44,20.2564706 L21.44,19.3752941 C21.44,18.3688364 20.6241048,17.5529412 19.6176471,17.5529412 L16.7576471,17.5529412 C15.6530776,17.5529412 14.7576471,18.4483717 14.7576471,19.5529412 L14.7576471,28.2352941 L14.7576471,28.2352941 L12.0282353,28.2352941 L12.0282353,19.5529412 C12.0282353,18.4483717 11.1328048,17.5529412 10.0282353,17.5529412 L7.34588234,17.5529412 C6.24131284,17.5529412 5.34588234,18.4483717 5.34588234,19.5529412 L5.34588234,28.2352941 L5.34588234,28.2352941 L4.52941175,28.2352941 C3.977127,28.2352941 3.52941175,27.7875789 3.52941175,27.2352941 L3.52941175,12.7270588 C3.52941175,12.1747741 3.977127,11.7270588 4.52941175,11.7270588 L22.1811765,11.7270588 C22.7334612,11.7270588 23.1811765,12.1747741 23.1811765,12.7270588 L23.1811765,18.3717647 C23.1811765,18.8915621 23.6025555,19.3129412 24.1223529,19.3129412 C24.6421503,19.3129412 25.0635294,18.8915621 25.0635294,18.3717647 L25.0635294,11.7270588 L25.0635294,11.7270588 C25.9159972,11.7270588 26.6070588,11.0359972 26.6070588,10.1835294 L26.6070588,2 C26.6070588,0.8954305 25.7116283,-2.02906125e-16 24.6070588,0 L2.10352941,0 C0.998959907,2.02906125e-16 0.103529406,0.8954305 0.103529406,2 L0.103529406,10.1835294 C0.103529406,11.0359972 0.794591061,11.7270588 1.64705881,11.7270588 L1.64705881,11.7270588 L1.64705881,11.7270588 L1.64705881,28.1176471 C1.64705881,29.2222166 2.54248931,30.1176471 3.64705881,30.1176471 L18.7105883,30.1176471 C19.2303857,30.1176471 19.6517647,29.696268 19.6517647,29.1764706 C19.6517647,28.6566732 19.2303857,28.2352941 18.7105882,28.2352941 L16.64,28.2352941 L16.64,28.2352941 L16.64,20.4352941 C16.64,19.8830094 17.0877153,19.4352941 17.64,19.4352941 Z M2.98588234,1.88235294 L23.7247059,1.88235294 C24.2769906,1.88235294 24.7247059,2.33006819 24.7247059,2.88235294 L24.7247059,8.89176472 C24.7247059,9.44404947 24.2769906,9.89176472 23.7247059,9.89176472 L2.98588234,9.89176472 C2.43359759,9.89176472 1.98588234,9.44404947 1.98588234,8.89176472 L1.98588234,2.88235294 C1.98588234,2.33006819 2.43359759,1.88235294 2.98588234,1.88235294 Z M7.22823528,28.2352941 L7.22823528,20.4352941 C7.22823528,19.8830094 7.67595053,19.4352941 8.22823528,19.4352941 L9.14588234,19.4352941 C9.69816709,19.4352941 10.1458823,19.8830094 10.1458823,20.4352941 L10.1458823,28.2352941 L10.1458823,28.2352941 L7.22823528,28.2352941 Z" id="形状" fill="#FFFFFF"></path>
                <path d="M20.7623529,22.2211765 C20.7623529,22.7409739 21.183732,23.1623529 21.7035294,23.1623529 L28.2917647,23.1623529 L28.2917647,23.1623529 L27.6540709,23.8046678 C27.2885536,24.1728337 27.2896266,24.7672736 27.6564706,25.1341177 C28.0229278,25.5005748 28.6170722,25.5005748 28.9835294,25.1341177 L31.1893638,22.9282832 C31.5798881,22.537759 31.5798881,21.904594 31.1893638,21.5140697 L28.9858865,19.3105924 C28.6194248,18.9441306 28.0252729,18.9441306 27.6588111,19.3105924 C27.6580295,19.3113739 27.6572494,19.3121569 27.6564706,19.3129412 C27.2900415,19.6819691 27.2921482,20.2781748 27.6611761,20.644604 C27.6611932,20.6446209 27.6612102,20.6446378 27.6612273,20.6446547 L28.3011765,21.28 L28.3011765,21.28 L21.7035294,21.28 C21.183732,21.28 20.7623529,21.7013791 20.7623529,22.2211765 Z M24.6117647,24.96 C24.2427085,24.5909438 23.6443503,24.5909438 23.2752941,24.96 L21.0741656,27.1611285 C20.6836413,27.5516528 20.6836413,28.1848178 21.0741656,28.5753421 L23.2776429,30.7788194 C23.6457819,31.1469583 24.2423272,31.1480123 24.6117647,30.7811765 C24.9795191,30.4160119 24.9816186,29.8218637 24.616454,29.4541093 C24.6156752,29.453325 24.614895,29.4525421 24.6141135,29.4517605 L23.9717647,28.8094117 L23.9717647,28.8094117 L30.56,28.8094117 C31.0797974,28.8094117 31.5011765,28.3880327 31.5011765,27.8682353 C31.5011765,27.3484379 31.0797974,26.9270588 30.56,26.9270588 L23.9717647,26.9270588 L23.9717647,26.9270588 L24.6093567,26.2940538 C24.978408,25.9276575 24.9805604,25.3314594 24.6141641,24.962408 C24.6133657,24.9616039 24.6125659,24.9608012 24.6117647,24.96 Z" id="形状" fill="#FFFFFF"></path>
            </g>
        </g>
    </g>
</svg>