<?xml version="1.0" encoding="UTF-8"?>
<svg width="16px" height="16px" viewBox="0 0 16 16" version="1.1" xmlns="http://www.w3.org/2000/svg" xmlns:xlink="http://www.w3.org/1999/xlink">
    <!-- Generator: Sketch 64 (93537) - https://sketch.com -->
    <title>待办</title>
    <desc>Created with Sketch.</desc>
    <g id="案管角色" stroke="none" stroke-width="1" fill="none" fill-rule="evenodd">
        <g id="待办" fill-rule="nonzero">
            <rect id="矩形" fill="#4772D4" opacity="0" x="0" y="0" width="16" height="16"></rect>
            <g id="编组-5" fill="#999999">
                <path d="M7.53958333,0.916666667 C3.39375,0.916666667 -1.20792265e-13,4.30833333 -1.20792265e-13,8.45625 C-1.20792265e-13,12.6020833 3.39166667,15.9958333 7.53958333,15.9958333 C11.6854167,15.9958333 15.0791667,12.6041667 15.0791667,8.45625 C15.0791667,4.31041667 11.6854167,0.916666667 7.53958333,0.916666667 Z M7.53958333,14.91875 C3.98541667,14.91875 1.07708333,12.0104167 1.07708333,8.45625 C1.07708333,4.84791667 3.98541667,1.93958333 7.53958333,1.93958333 C11.09375,1.93958333 14.05625,4.84791667 14.05625,8.45625 C14.05625,12.0104167 11.1479167,14.91875 7.53958333,14.91875 Z M13.7333333,2.31666667 C13.8416667,2.37083333 13.8958333,2.425 14.0020833,2.425 C14.1645833,2.425 14.325,2.31666667 14.4333333,2.21041667 L14.5416667,2.04791667 C14.5958333,1.93958333 14.65,1.77916667 14.65,1.67083333 C14.65,1.50833333 14.5416667,1.40208333 14.4354167,1.34791667 L12.6583333,0.108333333 C12.55,0.0541666667 12.4958333,3.07901852e-14 12.3895833,3.07901852e-14 C12.2270833,3.07901852e-14 12.0666667,0.108333333 11.9583333,0.214583333 L11.85,0.377083333 C11.7958333,0.485416667 11.7416667,0.645833333 11.7416667,0.754166667 C11.7416667,0.8625 11.85,1.02291667 11.95625,1.07708333 L13.7333333,2.31666667 L13.7333333,2.31666667 Z M0.645833333,2.425 C0.754166667,2.53333333 0.914583333,2.63958333 1.07708333,2.63958333 C1.18541667,2.63958333 1.29166667,2.58541667 1.4,2.53125 L3.01458333,1.13125 C3.22916667,0.916666667 3.28333333,0.591666667 3.06875,0.377083333 L3.01458333,0.26875 C2.90625,0.160416667 2.74583333,0.10625 2.58333333,0.10625 C2.475,0.10625 2.36875,0.160416667 2.26041667,0.214583333 L0.645833333,1.61666667 C0.43125,1.77916667 0.377083333,2.10208333 0.591666667,2.31666667 L0.645833333,2.425 L0.645833333,2.425 Z" id="形状"></path>
                <path d="M10.0166667,7.97083333 L7.37708333,7.97083333 L7.37708333,5.11666667 C7.37708333,4.84791667 7.1625,4.57916667 6.83958333,4.525 L6.78541667,4.525 C6.4625,4.525 6.19375,4.79375 6.19375,5.11666667 L6.19375,9.10208333 L10.0166667,9.10208333 C10.3395833,9.10208333 10.6083333,8.83333333 10.6083333,8.51041667 C10.6083333,8.24166667 10.3395833,7.97083333 10.0166667,7.97083333 Z" id="路径"></path>
            </g>
        </g>
    </g>
</svg>